<?xml version="1.0" standalone="no"?>
<!DOCTYPE svg PUBLIC "-//W3C//DTD SVG 20010904//EN"
 "http://www.w3.org/TR/2001/REC-SVG-20010904/DTD/svg10.dtd">
<svg version="1.0" xmlns="http://www.w3.org/2000/svg"
 width="1920.000000pt" height="1080.000000pt" viewBox="0 0 1920.000000 1080.000000"
 preserveAspectRatio="xMidYMid meet">

<g transform="translate(0.000000,1080.000000) scale(0.100000,-0.100000)"
fill="#000000" stroke="none">
<path d="M9452 6497 c-6 -7 -198 -493 -427 -1080 -278 -714 -414 -1075 -410
-1088 11 -33 48 -39 253 -39 158 0 202 3 219 15 13 9 35 55 59 125 l39 110
313 -2 314 -3 39 -105 c22 -58 49 -113 61 -122 18 -16 44 -18 218 -18 206 0
244 6 254 38 4 12 -19 85 -60 188 -36 93 -217 556 -401 1029 -363 933 -368
946 -386 957 -19 12 -74 9 -85 -5z m158 -1362 c35 -105 65 -196 67 -202 4 -10
-36 -13 -180 -13 l-186 0 15 43 c51 138 134 393 148 457 10 41 20 82 23 90 3
8 15 -30 28 -85 13 -55 51 -186 85 -290z"/>
<path d="M13800 6437 l-25 -13 -3 -1049 -2 -1050 21 -17 c19 -16 45 -18 208
-18 153 0 191 3 209 16 l22 15 0 640 c0 385 4 638 9 635 5 -4 208 -296 450
-650 313 -457 447 -645 463 -650 13 -3 104 -6 203 -6 147 0 185 3 203 16 l22
15 0 1042 c0 573 -4 1047 -8 1053 -19 28 -56 34 -224 34 -119 0 -181 -4 -198
-13 l-25 -13 -5 -654 -5 -655 -443 652 c-243 358 -450 657 -459 665 -23 19
-378 24 -413 5z"/>
<path d="M10421 6421 c-21 -21 -21 -23 -21 -1051 l0 -1031 25 -24 24 -25 363
0 c200 0 404 5 453 10 283 32 489 154 578 340 82 173 83 381 2 540 -31 61
-107 145 -161 176 -24 14 -44 29 -44 33 0 4 14 15 30 25 50 29 128 114 155
166 55 109 68 230 40 375 -33 174 -139 308 -306 388 -181 87 -204 90 -691 95
-420 3 -427 3 -447 -17z m880 -452 c65 -31 99 -77 107 -144 11 -100 -33 -172
-131 -216 -47 -21 -70 -24 -229 -27 l-178 -4 0 212 0 212 188 -4 c177 -3 190
-5 243 -29z m-49 -820 c96 -20 150 -62 176 -138 26 -76 3 -163 -57 -214 -55
-46 -115 -57 -318 -57 l-183 0 0 210 0 210 165 0 c90 0 188 -5 217 -11z"/>
<path d="M12108 6429 c-17 -9 -18 -70 -18 -1059 l0 -1049 22 -15 c18 -13 57
-16 211 -16 186 0 188 0 212 25 l25 24 0 406 0 405 78 0 77 0 190 -416 c157
-344 195 -418 217 -430 21 -11 74 -14 227 -14 215 0 231 4 231 54 0 12 -50
130 -111 262 -207 447 -280 607 -277 609 2 1 36 19 76 41 169 90 267 238 293
444 11 88 -1 221 -27 310 -40 138 -133 259 -251 325 -68 38 -205 82 -296 94
-102 14 -856 14 -879 0z m826 -446 c98 -28 166 -113 166 -210 0 -79 -55 -152
-136 -183 -48 -17 -78 -20 -229 -20 l-175 0 0 215 0 215 157 0 c117 0 172 -4
217 -17z"/>
</g>
</svg>
