<svg width="148" height="16" viewBox="0 0 148 16" fill="none" xmlns="http://www.w3.org/2000/svg">
<path fill-rule="evenodd" clip-rule="evenodd" d="M75.0001 1.0071L74.9252 0.849882H72.7812V15.0146L75.0001 15.0146V1.0071ZM77.0001 10.4129L78.4932 13.5172H79.6612L82.9572 6.51577L82.9733 15.0146H85.4053L85.3732 0.849882H83.2452L79.1172 9.65224L77.0001 5.2067V10.4129ZM43.1562 0.849882H45.0001V15.0146L43.1562 15.0146V0.849882ZM48.0042 11.0687H47.0001V8.45835H47.8603C48.6389 8.45835 49.2309 8.24251 49.6362 7.81082C50.0416 7.37914 50.2443 6.77208 50.2443 5.98965C50.2443 5.19373 50.0416 4.58667 49.6362 4.16847C49.2309 3.73678 48.6389 3.52094 47.8603 3.52094H47.0001V0.849882H48.0042C48.9963 0.849882 49.8549 1.05898 50.5802 1.47718C51.3162 1.89537 51.8816 2.48894 52.2763 3.25788C52.6709 4.02682 52.8683 4.93741 52.8683 5.98965C52.8683 7.04188 52.6656 7.95247 52.2603 8.72141C51.8656 9.47686 51.3003 10.0569 50.5643 10.4616L53.0763 15.0146H50.2923L48.1323 11.0687H48.0042ZM23.0001 0.849882H20.8594V15.0146H23.0001V0.849882ZM25.0001 11.1092H25.7074C26.6994 11.1092 27.558 10.9068 28.2834 10.5021C29.0194 10.0839 29.5847 9.49035 29.9794 8.72141C30.374 7.93898 30.5714 7.02839 30.5714 5.98965C30.5714 4.93741 30.374 4.02682 29.9794 3.25788C29.5847 2.48894 29.0194 1.89537 28.2834 1.47718C27.558 1.05898 26.6994 0.849882 25.7074 0.849882H25.0001V3.52094H25.5634C26.342 3.52094 26.934 3.73678 27.3394 4.16847C27.7447 4.58667 27.9474 5.19373 27.9474 5.98965C27.9474 6.77208 27.7447 7.37914 27.3394 7.81082C26.934 8.22902 26.342 8.43812 25.5634 8.43812H25.0001V11.1092ZM124.039 12.2424L125.239 10.7449L127.959 15.0146H130.983L127.079 8.74165L130.663 4.128H127.687L124.039 8.49882V0H121.543V15.0146H124.039V12.2424ZM0.328125 0.849882H2.92013V15.0146H0.328125V0.849882ZM15.7701 15.0146L15.7541 6.51577L12.4581 13.5172H11.2901L8.01013 6.69788V15.0146H5.57812V0.849882H7.72213L11.9141 9.65224L16.0421 0.849882H18.1701L18.2021 15.0146H15.7701ZM41.0939 12.384V15.0146H32.4219V0.849882H40.8859V3.48047H34.9979V6.55624H40.1979V9.10588H34.9979V12.384H41.0939ZM54.9219 0.849882H57.5139V15.0146H54.9219V0.849882ZM61.4039 13.5779C62.2999 14.6976 63.5479 15.2574 65.1479 15.2574C66.7479 15.2574 67.9905 14.6976 68.8759 13.5779C69.7719 12.4582 70.2199 10.8596 70.2199 8.78212V0.849882H67.6599V8.66071C67.6599 9.96926 67.4465 10.9338 67.0199 11.5544C66.5932 12.1614 65.9745 12.4649 65.1639 12.4649C63.4999 12.4649 62.6679 11.1969 62.6679 8.66071V0.849882H60.0759V8.78212C60.0759 10.8596 60.5185 12.4582 61.4039 13.5779ZM87.7265 14.6099C88.0252 14.9876 88.3932 15.1765 88.8305 15.1765C89.2678 15.1765 89.6358 14.9876 89.9345 14.6099C90.2332 14.2322 90.3825 13.76 90.3825 13.1934C90.3825 12.6133 90.2332 12.1479 89.9345 11.7972C89.6358 11.4329 89.2678 11.2508 88.8305 11.2508C88.3932 11.2508 88.0252 11.4329 87.7265 11.7972C87.4278 12.1479 87.2785 12.6133 87.2785 13.1934C87.2785 13.76 87.4278 14.2322 87.7265 14.6099ZM100.474 7.64894C101.114 7.90526 101.615 8.33694 101.978 8.944C102.341 9.53757 102.522 10.2728 102.522 11.1496C102.522 12.3907 102.138 13.3485 101.37 14.0231C100.613 14.6841 99.5033 15.0146 98.042 15.0146H92.25V0.849882H97.722C99.0873 0.849882 100.133 1.18039 100.858 1.84141C101.594 2.50243 101.962 3.39953 101.962 4.53271C101.962 5.22071 101.829 5.83451 101.562 6.37412C101.306 6.91373 100.943 7.33867 100.474 7.64894ZM94.826 3.31859V6.65741H97.402C98.042 6.65741 98.5273 6.51577 98.858 6.23247C99.1887 5.94918 99.354 5.53098 99.354 4.97788C99.354 4.42478 99.1887 4.01333 98.858 3.74353C98.5273 3.46024 98.042 3.31859 97.402 3.31859H94.826ZM97.85 12.5459C98.5327 12.5459 99.0447 12.4042 99.386 12.1209C99.738 11.8376 99.914 11.3992 99.914 10.8056C99.914 9.632 99.226 9.04518 97.85 9.04518H94.826V12.5459H97.85ZM107.892 4.37082C107.391 4.64063 106.991 5.03859 106.692 5.56471V4.128H104.308V15.0146H106.804V9.87482C106.804 8.86306 107.007 8.10761 107.412 7.60847C107.818 7.09584 108.378 6.83953 109.092 6.83953C109.188 6.83953 109.375 6.85302 109.652 6.88V3.96612C108.991 3.96612 108.404 4.10102 107.892 4.37082ZM115.154 15.1765C114.248 15.1765 113.432 14.9404 112.706 14.4682C111.992 13.9826 111.432 13.3148 111.026 12.4649C110.621 11.6151 110.418 10.6505 110.418 9.57129C110.418 8.49208 110.621 7.52753 111.026 6.67765C111.432 5.82776 111.992 5.16675 112.706 4.69459C113.432 4.20894 114.248 3.96612 115.154 3.96612C116.061 3.96612 116.872 4.20894 117.586 4.69459C118.301 5.16675 118.861 5.82776 119.266 6.67765C119.672 7.52753 119.874 8.49208 119.874 9.57129C119.874 10.6505 119.672 11.6151 119.266 12.4649C118.861 13.3148 118.301 13.9826 117.586 14.4682C116.872 14.9404 116.061 15.1765 115.154 15.1765ZM115.154 12.5864C115.794 12.5864 116.317 12.3165 116.722 11.7769C117.138 11.2238 117.346 10.4886 117.346 9.57129C117.346 8.65396 117.138 7.92549 116.722 7.38588C116.317 6.83279 115.794 6.55624 115.154 6.55624C114.514 6.55624 113.986 6.83279 113.57 7.38588C113.154 7.92549 112.946 8.65396 112.946 9.57129C112.946 10.4886 113.154 11.2238 113.57 11.7769C113.986 12.3165 114.514 12.5864 115.154 12.5864ZM140.162 9.61176C140.162 9.65224 140.146 9.93553 140.114 10.4616H133.602C133.72 11.1362 133.997 11.669 134.434 12.0602C134.872 12.4515 135.416 12.6471 136.066 12.6471C136.514 12.6471 136.909 12.5661 137.25 12.4042C137.602 12.2289 137.928 11.9591 138.226 11.5948L139.554 13.416C138.744 14.5896 137.56 15.1765 136.002 15.1765C135.032 15.1765 134.173 14.9404 133.426 14.4682C132.68 13.9826 132.104 13.3148 131.698 12.4649C131.293 11.6151 131.09 10.6505 131.09 9.57129C131.09 8.50557 131.288 7.54777 131.682 6.69788C132.088 5.83451 132.637 5.16675 133.33 4.69459C134.034 4.20894 134.818 3.96612 135.682 3.96612C136.525 3.96612 137.288 4.19545 137.97 4.65412C138.653 5.11278 139.186 5.7738 139.57 6.63718C139.965 7.48706 140.162 8.47859 140.162 9.61176ZM135.698 6.35388C135.133 6.35388 134.658 6.55624 134.274 6.96094C133.89 7.36565 133.656 7.91875 133.57 8.62024H137.81C137.725 7.93224 137.49 7.38588 137.106 6.98118C136.722 6.56298 136.253 6.35388 135.698 6.35388ZM145.408 4.37082C144.907 4.64063 144.507 5.03859 144.208 5.56471V4.128H141.824V15.0146H144.32V9.87482C144.32 8.86306 144.523 8.10761 144.928 7.60847C145.333 7.09584 145.893 6.83953 146.608 6.83953C146.704 6.83953 146.891 6.85302 147.168 6.88V3.96612C146.507 3.96612 145.92 4.10102 145.408 4.37082Z" fill="white"/>
<path fill-rule="evenodd" clip-rule="evenodd" d="M53 15.0146H53.0761L53 14.8766V15.0146ZM57.5138 0.849915H54.9218V15.0146H57.5138V0.849915ZM88.8304 15.1765C88.393 15.1765 88.025 14.9876 87.7264 14.6099C87.4277 14.2322 87.2784 13.76 87.2784 13.1934C87.2784 12.6134 87.4277 12.148 87.7264 11.7972C88.025 11.433 88.393 11.2509 88.8304 11.2509C89.2677 11.2509 89.6357 11.433 89.9344 11.7972C90.233 12.148 90.3824 12.6134 90.3824 13.1934C90.3824 13.76 90.233 14.2322 89.9344 14.6099C89.6357 14.9876 89.2677 15.1765 88.8304 15.1765Z" fill="url(#paint0_linear_1301_6367)" fill-opacity="0.8"/>
<defs>
<linearGradient id="paint0_linear_1301_6367" x1="80.9535" y1="18.6668" x2="81.527" y2="-1.75173" gradientUnits="userSpaceOnUse">
<stop stop-color="#612CF7"/>
<stop offset="1" stop-color="#05C0CC"/>
</linearGradient>
</defs>
</svg>
