<?xml version="1.0" standalone="no"?>
<!DOCTYPE svg PUBLIC "-//W3C//DTD SVG 20010904//EN"
 "http://www.w3.org/TR/2001/REC-SVG-20010904/DTD/svg10.dtd">
<svg version="1.0" xmlns="http://www.w3.org/2000/svg"
 width="1920.000000pt" height="1080.000000pt" viewBox="0 0 1920.000000 1080.000000"
 preserveAspectRatio="xMidYMid meet">

<g transform="translate(0.000000,1080.000000) scale(0.100000,-0.100000)"
fill="#000000" stroke="none">
<path d="M0 5400 l0 -5400 9600 0 9600 0 0 5400 0 5400 -9600 0 -9600 0 0
-5400z m1651 490 c66 -38 122 -70 126 -70 3 0 60 32 128 71 l122 70 144 -83
144 -84 5 -144 5 -145 47 -30 c26 -16 81 -49 122 -73 l76 -42 0 -173 0 -173
-144 -82 c-79 -45 -147 -82 -151 -82 -4 0 -58 29 -120 65 -61 36 -119 65 -128
65 -10 0 -68 -29 -129 -65 -62 -36 -117 -65 -123 -65 -5 1 -73 38 -150 83
l-140 82 -3 145 -3 145 -122 71 -122 70 0 173 0 173 145 84 c80 46 146 84 148
84 1 0 57 -31 123 -70z m1991 -480 c87 -190 158 -348 158 -352 0 -5 -17 -8
-37 -8 l-38 0 -40 93 -41 92 -198 0 -199 0 -40 -92 -40 -93 -39 0 c-21 0 -38
2 -38 4 0 2 64 143 141 312 78 170 150 328 160 352 18 41 21 43 56 40 l37 -3
158 -345z m730 317 c73 -36 101 -78 101 -152 0 -62 -24 -110 -71 -141 l-32
-22 24 -6 c32 -8 83 -52 101 -87 19 -36 19 -122 0 -158 -22 -43 -70 -79 -127
-96 -39 -11 -101 -15 -250 -15 l-198 0 0 356 0 356 198 -3 c192 -4 198 -5 254
-32z m705 10 c89 -33 136 -87 153 -176 19 -103 -28 -210 -109 -247 -22 -11
-39 -24 -36 -31 2 -6 38 -59 79 -117 42 -59 76 -109 76 -111 0 -3 -17 -5 -38
-5 -38 0 -41 2 -118 112 -43 61 -82 111 -86 110 -5 -1 -60 -2 -123 -2 l-115 0
0 -110 0 -110 -40 0 -40 0 0 356 0 356 178 -4 c126 -4 189 -10 219 -21z m621
-263 l227 -285 3 285 2 286 35 0 35 0 0 -356 0 -355 -32 3 c-28 3 -54 32 -252
282 l-221 278 -3 -281 -2 -281 -40 0 -40 0 0 355 0 355 30 0 c28 0 50 -24 258
-286z"/>
<path d="M1447 5808 c-37 -22 -65 -43 -62 -48 7 -12 131 -80 145 -80 20 0 140
75 136 85 -3 12 -127 85 -141 84 -5 0 -40 -19 -78 -41z"/>
<path d="M1785 5714 c-126 -73 -238 -136 -247 -139 -10 -4 -55 16 -113 49
l-96 56 3 -92 3 -92 90 -52 c50 -29 95 -53 100 -54 6 0 120 63 254 141 134 77
250 138 258 135 7 -3 52 -28 99 -56 46 -27 87 -50 89 -50 3 0 5 38 5 83 0 68
-3 87 -17 99 -26 21 -178 108 -189 107 -5 0 -112 -61 -239 -135z"/>
<path d="M1957 5526 c-32 -18 -63 -38 -69 -44 -7 -7 13 -23 62 -53 71 -42 71
-42 105 -26 50 24 115 66 115 75 0 8 -133 82 -146 82 -5 0 -35 -16 -67 -34z"/>
<path d="M1703 5379 c-40 -22 -73 -44 -73 -47 0 -10 130 -82 148 -82 18 0 142
71 142 81 0 6 -133 89 -142 89 -2 0 -36 -19 -75 -41z"/>
<path d="M2031 5280 c-133 -77 -248 -140 -254 -140 -7 0 -50 22 -97 50 -47 27
-88 50 -92 50 -5 0 -8 -39 -8 -87 l0 -88 95 -53 c52 -30 100 -52 108 -50 7 2
122 65 254 141 l240 138 96 -56 c53 -30 98 -55 101 -55 12 0 6 168 -6 178 -12
9 -187 112 -191 112 -2 0 -112 -63 -246 -140z"/>
<path d="M2198 5089 c-38 -22 -68 -43 -68 -47 0 -8 133 -82 148 -82 14 0 142
74 142 82 0 8 -134 88 -147 88 -4 -1 -38 -19 -75 -41z"/>
<path d="M3366 5498 c-43 -95 -80 -179 -83 -185 -4 -10 32 -13 161 -13 91 0
166 2 166 5 0 8 -152 349 -160 358 -4 4 -42 -70 -84 -165z"/>
<path d="M4000 5565 l0 -125 143 0 c165 0 213 15 242 71 21 39 15 101 -12 131
-35 40 -75 48 -228 48 l-145 0 0 -125z"/>
<path d="M4000 5245 l0 -137 168 3 c146 4 171 7 202 24 92 54 87 181 -8 223
-27 11 -81 17 -199 20 l-163 4 0 -137z"/>
<path d="M4760 5515 l0 -177 138 4 c165 4 204 18 240 88 44 86 18 186 -61 231
-38 22 -56 24 -179 27 l-138 4 0 -177z"/>
</g>
</svg>
