<svg width="41" height="40" viewBox="0 0 41 40" fill="none" xmlns="http://www.w3.org/2000/svg">
<g clip-path="url(#clip0_1301_6094)">
<path d="M20.1875 18.75H21.75V26.5625C21.75 27.4255 22.4495 28.125 23.3125 28.125C24.1755 28.125 24.875 27.4255 24.875 26.5625V18.75H26.4375C27.3005 18.75 28 18.0505 28 17.1875V4.6875C28 3.82453 27.3005 3.125 26.4375 3.125H24.875V1.5625C24.875 0.699531 24.1755 0 23.3125 0C22.4495 0 21.75 0.699531 21.75 1.5625V3.125H20.1875C19.3245 3.125 18.625 3.82453 18.625 4.6875V17.1875C18.625 18.0505 19.3245 18.75 20.1875 18.75ZM21.75 6.25H24.875V15.625H21.75V6.25ZM7.6875 31.25H9.25V32.8125C9.25 33.6755 9.94953 34.375 10.8125 34.375C11.6755 34.375 12.375 33.6755 12.375 32.8125V31.25H13.9375C14.8005 31.25 15.5 30.5505 15.5 29.6875V17.1875C15.5 16.3245 14.8005 15.625 13.9375 15.625H12.375V14.0625C12.375 13.1995 11.6755 12.5 10.8125 12.5C9.94953 12.5 9.25 13.1995 9.25 14.0625V15.625H7.6875C6.82453 15.625 6.125 16.3245 6.125 17.1875V29.6875C6.125 30.5505 6.82453 31.25 7.6875 31.25ZM9.25 18.75H12.375V28.125H9.25V18.75ZM38.9375 36.875H3.625V1.5625C3.625 0.699531 2.92547 0 2.0625 0C1.19953 0 0.5 0.699531 0.5 1.5625V38.4375C0.5 39.3005 1.19953 40 2.0625 40H38.9375C39.8005 40 40.5 39.3005 40.5 38.4375C40.5 37.5745 39.8005 36.875 38.9375 36.875ZM38.9375 12.5H37.375V4.6875C37.375 3.82453 36.6755 3.125 35.8125 3.125C34.9495 3.125 34.25 3.82453 34.25 4.6875V12.5H32.6875C31.8245 12.5 31.125 13.1995 31.125 14.0625V23.4375C31.125 24.3005 31.8245 25 32.6875 25H34.25V29.6875C34.25 30.5505 34.9495 31.25 35.8125 31.25C36.6755 31.25 37.375 30.5505 37.375 29.6875V25H38.9375C39.8005 25 40.5 24.3005 40.5 23.4375V14.0625C40.5 13.1995 39.8005 12.5 38.9375 12.5ZM37.375 21.875H34.25V15.625H37.375V21.875Z" fill="white"/>
</g>
<defs>
<clipPath id="clip0_1301_6094">
<rect width="40" height="40" fill="white" transform="translate(0.5)"/>
</clipPath>
</defs>
</svg>
