<svg width="41" height="40" viewBox="0 0 41 40" fill="none" xmlns="http://www.w3.org/2000/svg">
<path d="M22.5201 15.4577L18.9375 19.0403L18.4798 18.5827C17.8696 17.9724 16.8803 17.9724 16.2702 18.5827C15.66 19.1929 15.6599 20.1822 16.2702 20.7923L17.8327 22.3548C18.1377 22.6599 18.5376 22.8125 18.9375 22.8125C19.3374 22.8125 19.7373 22.6599 20.0423 22.3548L24.7298 17.6673C25.3401 17.0571 25.3401 16.0678 24.7298 15.4577C24.1196 14.8475 23.1303 14.8474 22.5201 15.4577ZM36.125 3.125H33C32.1384 3.125 31.4375 2.4243 31.4375 1.5625C31.4375 0.699531 30.738 0 29.875 0H11.125C10.262 0 9.5625 0.699531 9.5625 1.5625C9.5625 1.97984 9.39992 2.37227 9.10484 2.66734C8.80969 2.96242 8.41734 3.125 8 3.125H4.875C4.01203 3.125 3.3125 3.82453 3.3125 4.6875V19.378C3.3125 25.0677 5.37211 30.1279 9.26867 34.0113C12.2345 36.9672 16.3186 39.1947 20.1936 39.9697C20.2947 39.9899 20.3973 40 20.5 40C20.6027 40 20.7053 39.9899 20.8064 39.9697C25.5537 39.0202 29.8585 36.4355 32.9278 32.6915C35.9971 28.9475 37.6875 24.2194 37.6875 19.378V4.6875C37.6875 3.82453 36.988 3.125 36.125 3.125V3.125ZM34.5625 19.378C34.5625 27.7637 28.6682 35.0573 20.5019 36.8409C14.7336 35.5524 6.4375 29.9414 6.4375 19.378V6.25H8C9.25203 6.25 10.4292 5.76242 11.3145 4.87703C11.8176 4.37398 12.1923 3.77672 12.422 3.125H28.5802C29.2249 4.94391 30.9627 6.25 33 6.25H34.5625V19.378ZM30.3978 8.92953C29.1684 8.49289 28.056 7.74609 27.1812 6.76984C26.8849 6.43898 26.4617 6.25 26.0176 6.25H14.9824C14.5383 6.25 14.1152 6.43898 13.8187 6.76977C12.9439 7.74602 11.8316 8.49289 10.6021 8.92945C9.97891 9.15078 9.5625 9.74055 9.5625 10.402V19.3778C9.5625 25.9747 13.9025 31.6376 20.0475 33.497C20.1951 33.5416 20.3475 33.5639 20.5 33.5639C20.6523 33.5639 20.8048 33.5416 20.9523 33.497C27.145 31.6245 31.4375 25.8856 31.4375 19.3777V10.402C31.4375 9.74055 31.0211 9.15078 30.3978 8.92953ZM28.3125 19.3777C28.3125 24.2996 25.1228 28.748 20.4994 30.3588C15.8072 28.7332 12.6875 24.3786 12.6875 19.3777V11.4431C13.7785 10.923 14.782 10.2226 15.6485 9.375H25.3514C26.218 10.2227 27.2215 10.923 28.3124 11.4431V19.3777H28.3125Z" fill="white"/>
</svg>
