<svg width="41" height="40" viewBox="0 0 41 40" fill="none" xmlns="http://www.w3.org/2000/svg">
<g clip-path="url(#clip0_1301_6128)">
<path d="M40.5 19.8436V26.7966C40.4175 28.8697 37.4569 28.8681 37.3751 26.7966V23.7099L32.4025 28.6826C32.1095 28.9757 31.712 29.1403 31.2977 29.1403H23.4132L13.0118 39.5418C12.4016 40.152 11.4123 40.152 10.8021 39.5418C10.1919 38.9315 10.1919 37.9423 10.8021 37.3321L21.6612 26.473C21.9542 26.18 22.3517 26.0153 22.7661 26.0153H30.6504L35.2597 21.4061H31.9065C29.8334 21.3236 29.835 18.3629 31.9065 18.2812H38.9376C39.8005 18.2812 40.5 18.9807 40.5 19.8436V19.8436ZM38.9376 31.484C38.0746 31.484 37.3751 32.1835 37.3751 33.0464V38.4369C37.4576 40.51 40.4182 40.5084 40.5 38.4369V33.0464C40.5 32.1835 39.8005 31.484 38.9376 31.484ZM32.6877 31.484C31.8248 31.484 31.1252 32.1835 31.1252 33.0464V38.4369C31.2077 40.51 34.1684 40.5084 34.2502 38.4369V33.0464C34.2502 32.1835 33.5507 31.484 32.6877 31.484ZM26.4379 31.484C25.5749 31.484 24.8754 32.1835 24.8754 33.0464V38.4369C24.9579 40.51 27.9185 40.5084 28.0003 38.4369V33.0464C28.0003 32.1835 27.3008 31.484 26.4379 31.484ZM20.188 36.2495C19.3251 36.2495 18.6255 36.949 18.6255 37.8119V38.4369C18.708 40.51 21.6687 40.5084 21.7505 38.4369V37.8119C21.7505 36.949 21.0509 36.2495 20.188 36.2495ZM16.985 26.4841C17.8479 26.4841 18.5474 25.7846 18.5474 24.9216V23.962C23.4454 22.1489 22.2626 14.9437 16.9849 14.8437C14.9074 14.759 14.9175 11.8158 16.985 11.73C17.6123 11.73 18.1131 12.0623 18.3591 12.6419C18.6963 13.4362 19.6136 13.8067 20.408 13.4695C21.2023 13.1324 21.5728 12.215 21.2356 11.4207C20.7126 10.1886 19.7408 9.28761 18.5474 8.86802V7.81257C18.4649 5.7395 15.5043 5.74106 15.4225 7.81257V8.8727C10.5315 10.6857 11.698 17.8684 16.985 17.9686C19.0508 18.0541 19.064 21.0187 16.985 21.1047C16.3773 21.1047 15.7747 20.7082 15.5195 20.1405C15.1658 19.3534 14.2409 19.0022 13.4539 19.3559C12.6668 19.7096 12.3155 20.6345 12.6693 21.4216C13.2025 22.608 14.2245 23.5195 15.4225 23.9523V24.9215C15.4225 25.7846 16.122 26.4841 16.985 26.4841V26.4841ZM11.5941 31.8336C12.2224 31.8336 12.815 31.4518 13.0533 30.83C13.3623 30.0243 12.9595 29.1207 12.1537 28.8118C-1.45008 23.3185 2.2035 3.36986 16.9071 3.12526C23.3733 3.12526 28.8748 7.73984 29.9882 14.0977C30.137 14.9476 30.9467 15.516 31.7967 15.3672C32.6467 15.2183 33.2151 14.4086 33.0662 13.5586C32.4086 9.80323 30.437 6.36971 27.5145 3.89063C16.9817 -5.11197 0.453859 2.53441 0.501046 16.4064C0.422298 23.0753 4.79852 29.4128 11.0351 31.7296C11.2192 31.8001 11.4081 31.8336 11.5941 31.8336Z" fill="white"/>
</g>
<defs>
<clipPath id="clip0_1301_6128">
<rect width="40" height="40" fill="white" transform="translate(0.5)"/>
</clipPath>
</defs>
</svg>
