<svg width="41" height="40" viewBox="0 0 41 40" fill="none" xmlns="http://www.w3.org/2000/svg">
<g clip-path="url(#clip0_1301_6176)">
<path d="M22.0625 11.3614C22.0625 12.2244 21.363 12.9239 20.5 12.9239H19.1279L17.115 16.0657C16.783 16.5839 16.1857 16.8494 15.597 16.7719C14.9971 16.6937 14.496 16.2756 14.3113 15.6995L12.8502 11.138L12.1672 12.2043C11.8797 12.6526 11.3841 12.9239 10.8516 12.9239H8C7.13696 12.9239 6.4375 12.2244 6.4375 11.3614C6.4375 10.4984 7.13696 9.79889 8 9.79889H9.99707L12.01 6.6571C12.3365 6.14746 12.928 5.87219 13.528 5.95062C14.1279 6.02905 14.629 6.44684 14.8137 7.02332L16.2748 11.5845L16.9578 10.5185C17.2453 10.0702 17.7409 9.79889 18.2734 9.79889H20.5C21.363 9.79889 22.0625 10.4984 22.0625 11.3614ZM40.5 38.4375C40.5 39.3005 39.8005 40 38.9375 40H19.7749C18.9119 40 18.2124 39.3005 18.2124 38.4375C18.2124 36.0135 18.9775 33.7085 20.4249 31.7719C21.3374 30.5511 22.5032 29.5279 23.8185 28.7711C23.1151 27.7161 22.704 26.4502 22.704 25.0897C22.704 24.2688 22.8541 23.4686 23.1376 22.7225H20.0724L22.101 25.6784C22.429 26.1566 22.4653 26.777 22.1953 27.2903C21.9249 27.8036 21.3926 28.125 20.8125 28.125H8.3125C7.73236 28.125 7.20013 27.8036 6.93005 27.2903C6.65967 26.7773 6.69598 26.1566 7.02435 25.6784L9.05286 22.7225H2.0625C1.19946 22.7225 0.5 22.023 0.5 21.16V1.5625C0.5 0.699463 1.19946 0 2.0625 0H27.0625C27.9255 0 28.625 0.699463 28.625 1.5625V18.4784C28.8676 18.4515 29.1118 18.4375 29.3562 18.4375C33.0244 18.4375 36.0087 21.4218 36.0087 25.0897C36.0087 26.4502 35.5974 27.7161 34.8939 28.7711C36.2092 29.5279 37.375 30.5511 38.2872 31.7715C39.7349 33.7085 40.5 36.0135 40.5 38.4375V38.4375ZM25.829 25.0897C25.829 27.0352 27.4113 28.6179 29.3562 28.6179C31.3014 28.6179 32.8837 27.0352 32.8837 25.0897C32.8837 23.1448 31.3014 21.5625 29.3562 21.5625C27.4168 21.5625 25.829 23.1342 25.829 25.0897V25.0897ZM17.8453 25L16.2822 22.7228H12.8428L11.2797 25H17.8453ZM25.5 19.5978V3.125H3.625V19.5978C6.46619 19.5978 24.4053 19.5975 25.5 19.5978ZM37.2239 36.875C36.9951 35.7089 36.5083 34.6115 35.7841 33.6426C34.9122 32.4759 33.7214 31.5585 32.3835 31.011C31.4747 31.4777 30.4463 31.7429 29.3562 31.7429C28.2661 31.7429 27.2374 31.4777 26.3286 31.011C24.991 31.5585 23.7999 32.4759 22.928 33.6426C22.2038 34.6115 21.717 35.7092 21.4882 36.875H37.2239Z" fill="white"/>
</g>
<defs>
<clipPath id="clip0_1301_6176">
<rect width="40" height="40" fill="white" transform="translate(0.5)"/>
</clipPath>
</defs>
</svg>
