<?xml version="1.0" encoding="iso-8859-1"?>
<!-- Uploaded to: SVG Repo, www.svgrepo.com, Generator: SVG Repo Mixer Tools -->
<svg fill="#000000" height="800px" width="800px" version="1.1" id="Layer_1" xmlns="http://www.w3.org/2000/svg" xmlns:xlink="http://www.w3.org/1999/xlink" 
	 viewBox="0 0 330 330" xml:space="preserve">
<path id="XMLID_19_" d="M315,75H105V15c0-6.067-3.654-11.537-9.26-13.858c-5.602-2.32-12.057-1.038-16.347,3.252l-75,75
	c-5.858,5.858-5.858,15.355,0,21.213l75,75c2.869,2.87,6.706,4.394,10.609,4.394c1.933,0,3.882-0.373,5.737-1.142
	c5.605-2.322,9.26-7.792,9.26-13.858v-60h195v210c0,8.284,6.716,15,15,15c8.284,0,15-6.716,15-15V90C330,81.716,323.284,75,315,75z
	 M75,128.787L36.213,90L75,51.213V128.787z"/>
</svg>