<svg width="536" height="671" viewBox="0 0 536 671" fill="none" xmlns="http://www.w3.org/2000/svg">
<g clip-path="url(#clip0_55_448)">
<g opacity="0.2">
<path opacity="0.2" d="M245.3 19.5L313.4 30.4L169 147.6L245.3 19.5Z" fill="#42E8E0" fill-opacity="0.1"/>
</g>
<g opacity="0.2">
<path opacity="0.2" d="M102.3 229.3L319.8 50.2L336.5 102.1L280 203.3L170.7 255.3L102.3 229.3Z" fill="#42E8E0" fill-opacity="0.1"/>
</g>
<g opacity="0.2">
<path opacity="0.2" d="M90.8999 235.3L170.7 263L205.2 292.3L122 265L90.8999 235.3Z" fill="#42E8E0" fill-opacity="0.1"/>
</g>
<g opacity="0.2">
<path opacity="0.2" d="M505.4 668L497.5 649.4L464.1 616.4L430.5 601.9L414.8 554.8L311.7 559.7L295.2 507.6L230 505.2L190.7 451.2L169.9 470.4L159.5 499.3L201.8 512.4L228 544.9L250.4 528.7L232.5 581.5L300.6 599.1L311.7 619L371.9 647.5L378.1 669.3L505.4 668Z" fill="#42E8E0" fill-opacity="0.1"/>
</g>
<g opacity="0.3">
<path opacity="0.3" d="M313.4 30.4L310.9 22.5L228.3 11.3L135.8 63.8L84.8003 148L97.0003 228.8L102.3 230.7L88.9003 149.1L140.8 66.9001L232 17.4L313.4 30.4Z" fill="#42E8E0" fill-opacity="0.1"/>
</g>
<g opacity="0.3">
<path opacity="0.3" d="M319.8 19.5L346.2 56.8L369 134.4L346.2 99.3L319.8 19.5Z" fill="#42E8E0" fill-opacity="0.1"/>
</g>
<g opacity="0.3">
<path opacity="0.3" d="M90.9004 235.3L127.6 247.4L196 288.6L195.4 283.6L237.5 273L266.6 243L303.9 228.3L336.8 156.7L368.3 136.7L346.2 99.3L371.9 135.6L350 173.6L313 238.5L206.3 292.6L123.6 265.5L90.9004 235.3Z" fill="#42E8E0" fill-opacity="0.1"/>
</g>
<g opacity="0.3">
<path opacity="0.3" d="M346.2 315.4L319.8 278.9L293.9 261.7L278.7 274.7L283.2 336L325.3 373.6L341.4 415.7L344 473.1L369.5 442.2L416.7 422.9L434.4 414.2L396.8 364.6L385.3 352L373.5 331.7L346.2 315.4Z" fill="#42E8E0" fill-opacity="0.1"/>
</g>
<g opacity="0.3">
<path opacity="0.3" d="M438 668L424.9 630.7L430.5 601.9L396.3 588.9L311.7 559.7L251.2 528L241.4 525.5L221.4 518L181.8 478.2L172.3 467.3L152 344.2L144.5 322.5L133.3 338.9V356.4L114.4 328.5L109.8 313.7L105.4 304.8L97.3002 294.5L84.8002 288.6L96.7002 348.2L114.2 374.8L138.1 396.3L144.3 464.6L92.9002 419.3L56.2002 271.5L41.7002 290.4L27.0002 273L18.6002 249.5L3.2002 264.7L31.5002 345.8L63.3002 406.3L79.2002 455.2L170.7 523.4L193.5 571.6L231.3 581.5L371.9 647.5L378.1 669.3L438 668Z" fill="#42E8E0" fill-opacity="0.1"/>
</g>
<g opacity="0.3">
<path opacity="0.3" d="M178.2 391.7L225.4 415.6L222.1 427.4L211.9 435.1L186.9 420.4L178.2 391.7Z" fill="#42E8E0" fill-opacity="0.1"/>
</g>
<g opacity="0.3">
<path opacity="0.3" d="M228.8 507.6L245.6 473.5L293.9 456.9L295.2 478.2L279.2 496.2L249.5 508.6L228.8 507.6Z" fill="#42E8E0" fill-opacity="0.1"/>
</g>
<path d="M531 670.2L479.9 537.4L460.7 435.5L449.6 407.3L390 359.9L380.1 343.1L346.5 318.1L316.7 278.9L294.1 264.8L280.4 276.6L285.6 334.8L328.2 372.9L344.8 417.7L301.9 423.6L271.7 408.9L229.5 403.5L229.1 403.3L174 372.9L165.8 340.8L145.1 326L139.3 334L120.3 305.3L100.2 279.2L77.6 285.9L58.7 271.4L52.3 276.1L18.8 252.7L5.8 264.6L39.6 361.5L69.2 411.3L81.3 453.7L173.4 522.3L195.3 569.5L232.5 578.8L232.7 578.9L374 645.7L380.5 668.7L375.7 670L369.8 649.3L230.8 583.5L191.8 573.7L169.4 525.6L77 456.7L64.6 413.3L35 363.6L34.9 363.4L0 263.1L18.4 246.4L52.2 270L58.8 265.1L78.6 280.4L102 273.4L124.4 302.5L139.5 325.2L143.9 319L170.2 337.8L178.3 369.6L231.1 398.7L273.2 404.1L302.7 418.5L337.9 413.6L323.9 375.8L280.8 337.2L275.2 274.4L293.6 258.6L320.1 275.2L350 314.5L383.9 339.7L393.8 356.6L453.7 404.2L465.6 434.4L484.7 536L535.7 668.5L531 670.2Z" fill="#42E8E0" fill-opacity="0.1"/>
<path d="M206.5 295.3L122.3 267.7L86.6 234.6L71.5 147L72 146.2L129.5 52.7L229.1 0L320.1 15.6L349.5 57.1L372.9 135.1L372.4 136L314.8 240.3L206.5 295.3ZM124.9 263.3L206.1 289.9L311.2 236.6L367.5 134.5L344.9 59.3L317.2 20.2L230 5.2L133.1 56.6L76.8 148.2L91.3 232.2L124.9 263.3Z" fill="#42E8E0" fill-opacity="0.1"/>
<path d="M64.9 414.3L39 287.5L50.2 271.6L54.3 274.5L44.4 288.6L69.8 413.3L64.9 414.3Z" fill="#42E8E0" fill-opacity="0.1"/>
<path d="M139.1 436.9L108.2 408.1L80.6998 291.1L56.2998 270.8L59.4998 267L85.0998 288.3L112.7 405.5L142.5 433.3L139.1 436.9Z" fill="#42E8E0" fill-opacity="0.1"/>
<path d="M136.4 398.1L111.9 376.1L92.2998 340.1L96.6998 337.7L115.9 372.9L139.7 394.4L136.4 398.1Z" fill="#42E8E0" fill-opacity="0.1"/>
<path d="M168.4 524.5L142.1 467.9L142 467.5L130.7 338.2L142.5 321.1L146.6 323.9L135.9 339.5L147 466.6L173 522.3L168.4 524.5Z" fill="#42E8E0" fill-opacity="0.1"/>
<path d="M428.1 602.6L414.6 557.5L294.7 510.1H227.4L189.7 451.9L189.6 451.4L172.8 368.1L177.7 367.1L194.4 450L230.1 505.1H295.6L418.7 553.7L432.9 601.2L428.1 602.6Z" fill="#42E8E0" fill-opacity="0.1"/>
<path d="M367.4 513.7L341.5 473.8L339.3 416.9L344.3 416.7L346.5 472.3L371.6 511L367.4 513.7Z" fill="#42E8E0" fill-opacity="0.1"/>
<path d="M170.8 264.1L170.4 263.9L88.5 234.3L89.2 232.4L170.7 261.9L284.7 208.1L345.1 100.5L318.8 19.7999L320.7 19.2L347.3 100.7L347.1 101.1L286.2 209.6L170.8 264.1Z" fill="#42E8E0" fill-opacity="0.1"/>
<path d="M146.4 506.1L143.4 465.9L106.5 477.4L56.1997 270.6L58.1997 270.1L108 474.8L145.2 463.3L148.4 505.9L146.4 506.1Z" fill="#42E8E0" fill-opacity="0.1"/>
<path d="M416.6 558.9L395.3 485.5L368.5 442.4L376.9 389.6L369.4 370.2L322.4 322.9L315.7 297.5L293.1 262.1L294.8 261L317.6 296.6L324.2 321.8L371.1 369L371.2 369.2L378.8 388.8L416.9 421.6L452.3 404.2L465.3 439.9L451.9 468.5L416.6 558.9ZM370.6 442L397.2 484.7V484.8L416.9 552.7L450 467.9L463.1 439.9L451.2 407.1L416.6 424.1L378.6 391.4L370.6 442Z" fill="#42E8E0" fill-opacity="0.1"/>
<path d="M415.2 670.3C415 670.3 414.9 670.3 414.7 670.2L371.5 648.4C371.1 648.2 370.9 647.8 371 647.4C371 647 371.3 646.6 371.7 646.5L424.6 629.6L463.6 615.4L496.6 576.4L487.8 553.6L483.4 561.1C483.3 561.3 483.1 561.5 482.8 561.6L455.7 569.8C455.5 569.9 455.3 569.9 455.1 569.8L417.3 557L400.3 588.2C400.2 588.4 400 588.6 399.8 588.7L312.1 620C311.8 620.1 311.5 620.1 311.2 619.9C310.9 619.7 310.8 619.4 310.8 619.1V559.9L294.5 509L251.7 528.9L194.1 572.4C193.8 572.6 193.3 572.7 193 572.5C192.6 572.3 192.5 571.9 192.5 571.5L202.6 513.1L159.2 500.3C158.9 500.2 158.7 500 158.6 499.8C158.5 499.6 158.5 499.3 158.6 499L169.4 469L143.9 463.2C143.6 463.1 143.4 463 143.2 462.7C143 462.4 143 462.1 143.2 461.9L162.8 411.7L137.2 375.9C137.1 375.7 137 375.4 137 375.2L143.5 322.3C143.6 321.8 143.9 321.5 144.4 321.4C144.9 321.3 145.3 321.6 145.5 322.1L153 343.8C153 343.8 153 343.9 153 344L164.9 411.4C164.9 411.6 164.9 411.8 164.8 411.9L145.4 461.5L170.9 467.2C171.2 467.3 171.4 467.4 171.6 467.7C171.7 468 171.8 468.3 171.7 468.5L160.8 498.5L204.1 511.2C204.6 511.3 204.9 511.8 204.8 512.3L195 569L250.7 526.9C250.8 526.9 250.8 526.8 250.9 526.8L294.8 506.4C295.1 506.3 295.4 506.3 295.6 506.4C295.9 506.5 296.1 506.7 296.2 507L312.8 559.1C312.8 559.2 312.8 559.3 312.8 559.4V617.3L398.7 586.7L416 555.1C416.2 554.7 416.7 554.5 417.2 554.6L455.6 567.5L482 559.5L487.2 550.5C487.4 550.2 487.8 550 488.1 550C488.5 550 488.8 550.3 489 550.6L498.7 575.9C498.8 576.2 498.8 576.6 498.5 576.9L464.9 617C464.8 617.1 464.6 617.2 464.5 617.3L425.2 631.6L374.6 647.7L415.3 668.3L435.9 662.9L500.4 649.7L515.7 624.9L517.4 625.9L501.9 651.1C501.8 651.3 501.5 651.5 501.2 651.6L436.3 664.9L415.4 670.4C415.3 670.3 415.2 670.3 415.2 670.3ZM139.1 375.1L162.2 407.4L151.1 344.4L145.1 326.9L139.1 375.1Z" fill="#42E8E0" fill-opacity="0.1"/>
<path d="M227.2 545.5L171.5 467.9C171.4 467.8 171.3 467.6 171.3 467.5L162.9 411.8L164.9 411.5L173.3 466.9L228.8 544.3L227.2 545.5Z" fill="#42E8E0" fill-opacity="0.1"/>
<path d="M372.5 648.3L371.3 646.7L429.8 601.2L454.6 570L477.7 540.2L416.3 554.3C416 554.4 415.7 554.3 415.4 554.1L369 515L298.4 491.9L296.1 507.8C296.1 508.1 295.8 508.4 295.5 508.6C295.2 508.7 294.8 508.7 294.5 508.5L246 475L230.8 508L229 507.2L244.6 473.3L249.3 437.4C249.3 437 249.6 436.7 250 436.6L300.7 419.6C301 419.5 301.4 419.6 301.7 419.8C302 420 302.1 420.4 302 420.7L294.8 457L298.6 489.9V490L369.7 513.3C369.8 513.3 369.9 513.4 370 513.5L416.1 552.4L479.7 537.8C480.1 537.7 480.5 537.9 480.8 538.2C481.1 538.5 481 539 480.7 539.4L455.8 571.4L430.9 602.7C430.9 602.8 430.8 602.8 430.7 602.9L372.5 648.3ZM251.9 476.7L294.4 505.9L296.5 491.3L251.9 476.7ZM246.7 472.9L296.6 489.2L292.9 457C292.9 456.9 292.9 456.8 292.9 456.7L299.8 422L251.3 438.3L246.7 472.9Z" fill="#42E8E0" fill-opacity="0.1"/>
<path d="M326.1 375.3C325.9 375.3 325.6 375.2 325.4 375L282.5 336.7C282.2 336.5 282.1 336.1 282.2 335.8C282.3 335.5 282.5 335.2 282.8 335L319.1 322L279.3 278.1C279 277.7 279 277.2 279.3 276.8C279.6 276.4 280.1 276.3 280.6 276.5L317 296.1L333.4 295.5L333.5 297.5L316.8 298.1C316.6 298.1 316.4 298.1 316.3 298L284.8 281L321.7 321.7C321.9 321.9 322 322.3 321.9 322.6C321.8 322.9 321.6 323.2 321.3 323.3L285.2 336.3L325.9 372.6L341 341.9L342.8 342.8L327.1 374.6C327 374.9 326.7 375.1 326.4 375.1C326.2 375.3 326.1 375.3 326.1 375.3Z" fill="#42E8E0" fill-opacity="0.1"/>
<path d="M369.3 370.1L351.4 320.3L322.7 323.6L322.5 321.6L352 318.2C352.5 318.1 352.9 318.4 353.1 318.9L371.3 369.5L369.3 370.1Z" fill="#42E8E0" fill-opacity="0.1"/>
<path d="M324.3 373.7C322.8 354.2 320.4 324.5 319.9 322.8L320.7 322.6L321.3 321.6C321.9 322 322 322.1 324.1 348.1C325.1 360.8 326.1 373.5 326.1 373.5L324.3 373.7Z" fill="#42E8E0" fill-opacity="0.1"/>
<path d="M41.1997 294.1L24.8997 272C24.7997 271.9 24.7997 271.8 24.7997 271.7L17.6997 249.9L19.5997 249.3L26.6997 270.9L42.8997 292.9L41.1997 294.1Z" fill="#42E8E0" fill-opacity="0.1"/>
<path d="M114.9 375.5L113.5 374.1L130.8 357.4L105.6 356.5C105.3 356.5 105 356.3 104.8 356.1C104.6 355.8 104.6 355.5 104.7 355.2L121 304.5L81.1997 289.6L81.8997 287.7L122.6 302.9C123.1 303.1 123.4 303.6 123.2 304.1L107 354.4L133.3 355.4C133.7 355.4 134.1 355.7 134.2 356C134.3 356.4 134.2 356.8 134 357.1L114.9 375.5Z" fill="#42E8E0" fill-opacity="0.1"/>
<path d="M26.3601 272.307L10.2734 285.961L11.5676 287.485L27.6543 273.832L26.3601 272.307Z" fill="#42E8E0" fill-opacity="0.1"/>
<path d="M59.1998 376.8L36.1998 363.1L45.5998 313L10.2998 289.5L11.3998 287.8L47.7998 312L38.4998 361.3L54.4998 345.4L59.1998 376.8ZM39.7998 362.9L56.5998 372.9L53.1998 349.6L39.7998 362.9Z" fill="#42E8E0" fill-opacity="0.1"/>
<path d="M80.0997 455.5L78.1997 454.8L91.6997 419.5L61.8997 392.7L69.4997 328.5L48.1997 316.9L55.1997 271.4L57.1997 271.7L50.3997 315.8L71.6997 327.4L63.9997 391.9L93.9997 419L80.0997 455.5Z" fill="#42E8E0" fill-opacity="0.1"/>
<path d="M146.5 468L93.4999 419.2V346.8L65.3999 306.7L80.8999 289.2L82.3999 290.5L67.8999 306.8L95.4999 346.2V417.7L122.5 416.7L132.4 425.9L132.5 426.1L146.5 468ZM96.8999 419.6L142.1 461.2L130.6 427L121.7 418.7L96.8999 419.6Z" fill="#42E8E0" fill-opacity="0.1"/>
<path d="M230 545.1C229.9 545.1 229.8 545.1 229.8 545.1C229.4 545 229 544.6 229 544.2L227.9 510.7L216 527.6C215.8 527.9 215.3 528.1 214.9 528C214.5 527.9 214.2 527.6 214.1 527.2L207.2 477L182 481.7C181.6 481.8 181.2 481.6 181 481.3L171.5 468C171.2 467.6 171.3 467 171.7 466.7L189.1 451.5L167 436.5C166.6 436.2 166.4 435.7 166.7 435.2L181 408.6L165.5 414.5C165.1 414.7 164.6 414.5 164.4 414.2C164.1 413.9 164.1 413.4 164.3 413L177.1 391.8L151.2 344.8C151.1 344.5 151 344.2 151.1 343.9C151.2 343.6 151.4 343.4 151.7 343.3L167.7 338.4L168.3 340.3L153.5 344.8L179.1 391.2C179.3 391.5 179.3 391.9 179.1 392.2L167.5 411.4L182.7 405.6C183.1 405.4 183.5 405.6 183.8 405.9C184.1 406.2 184.1 406.7 183.9 407L168.8 435.1L191.3 450.3C191.6 450.5 191.7 450.8 191.7 451.1C191.7 451.4 191.6 451.7 191.4 451.9L173.7 467.4L182.3 479.5L207.9 474.7C208.2 474.7 208.4 474.7 208.7 474.9C208.9 475.1 209.1 475.3 209.1 475.6L215.8 524.3L228 507.1C228.2 506.8 228.7 506.6 229.1 506.7C229.5 506.8 229.8 507.2 229.8 507.6L230.9 540.4L248.6 508.1L250.4 509.1L230.9 544.6C230.7 544.9 230.3 545.1 230 545.1Z" fill="#42E8E0" fill-opacity="0.1"/>
<path d="M194.412 455.237L181.004 477.631L182.72 478.659L196.128 456.265L194.412 455.237Z" fill="#42E8E0" fill-opacity="0.1"/>
<path d="M227.9 508L206.5 458.7C206.4 458.5 206.4 458.3 206.4 458.1L211 434.9C211 434.7 211.2 434.4 211.4 434.3L211.9 433.9L198 384.1L199.9 383.6L213.6 432.7L221.3 426.9L230.7 401C230.8 400.6 231.2 400.4 231.6 400.3C232 400.3 232.4 400.5 232.6 400.8L251.4 437C251.6 437.3 251.5 437.7 251.4 438C251.2 438.3 250.9 438.5 250.5 438.5L213.8 437.9C213.4 437.9 213 437.6 212.9 437.2L212.8 436.8L208.5 458.3L229.8 507.3L227.9 508ZM214.5 435.9L248.8 436.5L231.9 403.8L223.2 427.8C223.1 428 223 428.1 222.9 428.3L214.3 434.7L214.5 435.9Z" fill="#42E8E0" fill-opacity="0.1"/>
<path d="M187.39 419.627L186.381 421.354L211.414 435.993L212.423 434.267L187.39 419.627Z" fill="#42E8E0" fill-opacity="0.1"/>
<path d="M245.4 474.5L220.1 468C220 468 219.9 467.9 219.9 467.9L191.6 451.8L192.6 450.1L220.8 466.2L245.9 472.7L245.4 474.5Z" fill="#42E8E0" fill-opacity="0.1"/>
<path d="M396.3 486.1C396 486.1 395.8 486 395.6 485.8C395.3 485.5 395.3 485.1 395.4 484.8L415.2 424.7L370.2 443.1L344.8 473.7C344.5 474.1 343.9 474.2 343.5 473.9C343.1 473.6 342.9 473.1 343.1 472.7L377 389.2C377 389.1 377.1 389 377.1 389L394.1 366.6L349.5 381L348.9 379.1L396.5 363.7C396.9 363.6 397.4 363.7 397.6 364.1C397.8 364.5 397.8 364.9 397.6 365.3L378.8 390L347.4 467.4L368.8 441.6C368.9 441.5 369 441.4 369.2 441.3L416.3 422C416.7 421.9 417.1 421.9 417.4 422.2C417.7 422.5 417.8 422.9 417.7 423.2L397.9 483.6L448.6 469.7L423.2 430.6L417.5 425.6L418.8 424.1L424.6 429.2C424.7 429.3 424.7 429.3 424.8 429.4L450.9 469.8C451.1 470.1 451.1 470.4 451 470.7C450.9 471 450.6 471.2 450.3 471.3L396.5 486C396.4 486.1 396.4 486.1 396.3 486.1Z" fill="#42E8E0" fill-opacity="0.1"/>
<path d="M479.3 534.4L450 468.7C449.9 468.6 449.9 468.4 449.9 468.3L450.7 405.7H452.7L451.9 468L481.1 533.5L479.3 534.4Z" fill="#42E8E0" fill-opacity="0.1"/>
<path d="M451.038 470.271L449.048 470.474L456.529 543.791L458.518 543.588L451.038 470.271Z" fill="#42E8E0" fill-opacity="0.1"/>
<path d="M504.4 668.2L500 651.1L463.5 617.2L430 602.8L311.6 560.7L232.7 582.5C232.3 582.6 232 582.5 231.7 582.2C231.4 581.9 231.4 581.5 231.5 581.2L250.2 527.7C250.3 527.4 250.5 527.2 250.8 527.1C251.1 527 251.4 527 251.6 527.1L312 558.7L430.7 600.9L464.4 615.4C464.5 615.4 464.6 615.5 464.7 615.6L501.5 649.8C501.6 649.9 501.7 650.1 501.8 650.3L506.2 667.7L504.4 668.2ZM251.8 529.4L234.1 580L309 559.3L251.8 529.4Z" fill="#42E8E0" fill-opacity="0.1"/>
<path d="M385 638.1L311.5 620C311.2 619.9 311 619.7 310.8 619.5L301.4 600.4L235.6 581.6L236.1 579.7L302.3 598.6C302.6 598.7 302.8 598.9 302.9 599.1L312.3 618.2L385.4 636.2L385 638.1Z" fill="#42E8E0" fill-opacity="0.1"/>
<path d="M437 668.3L423.9 631C423.8 630.8 423.8 630.7 423.9 630.5L429.5 601.7L431.5 602.1L425.9 630.6L438.9 667.7L437 668.3Z" fill="#42E8E0" fill-opacity="0.1"/>
<path d="M366.8 535.6L364.8 535.3L367.9 512.2C367.9 512 368 511.8 368.2 511.6L394.2 485.6L343.8 474L293.6 457.8L294.2 455.9L344.3 472.1L396.5 484.1C396.9 484.2 397.1 484.4 397.2 484.8C397.3 485.2 397.2 485.5 396.9 485.8L369.8 512.8L366.8 535.6Z" fill="#42E8E0" fill-opacity="0.1"/>
<path d="M416.722 554.744L311.696 558.645L311.77 560.644L416.796 556.742L416.722 554.744Z" fill="#42E8E0" fill-opacity="0.1"/>
<path d="M207.8 459.2L206.9 457.4L250 436.5C250.3 436.4 250.6 436.4 250.8 436.5L293.7 455.6L341.1 416L374.1 388.9L326.4 373.8L327 371.9L376.4 387.6C376.7 387.7 377 388 377.1 388.4C377.2 388.8 377 389.1 376.8 389.4L342.4 417.6L294.5 457.6C294.2 457.8 293.8 457.9 293.5 457.7L250.4 438.5L207.8 459.2Z" fill="#42E8E0" fill-opacity="0.1"/>
<path d="M341.322 471.37L297.292 488.917L298.033 490.775L342.063 473.228L341.322 471.37Z" fill="#42E8E0" fill-opacity="0.1"/>
<path d="M343.365 472.258L314.219 495.374L315.462 496.941L344.608 473.825L343.365 472.258Z" fill="#42E8E0" fill-opacity="0.1"/>
<path d="M219.763 552.114L217.954 552.968L231.658 581.996L233.466 581.142L219.763 552.114Z" fill="#42E8E0" fill-opacity="0.1"/>
<path d="M313.1 237.8L284.8 209.5L279.3 203.9C279 203.6 278.9 203.1 279.1 202.7L335.6 101.6L337.3 102.6L281.2 203.1L286.1 208.2L314.4 236.5L313.1 237.8Z" fill="#42E8E0" fill-opacity="0.1"/>
<path d="M205.7 293.4L170.1 263.8C169.9 263.6 169.7 263.3 169.7 263V256L96.6998 229.7C96.3998 229.6 96.0998 229.3 96.0998 228.9L83.7998 147.7C83.7998 147.5 83.7998 147.2 83.8998 147L135 63.3C135.1 63.2 135.2 63 135.4 63L227.8 10.4C228 10.3 228.2 10.2 228.4 10.3L311 21.5C311.4 21.6 311.7 21.8 311.8 22.2L337.1 100.8L344.9 97.1C345.3 96.9 345.9 97 346.2 97.4L371.1 134.2L369.4 135.3L345 99.2L336.9 103C336.6 103.1 336.3 103.1 336.1 103C335.8 102.9 335.6 102.7 335.5 102.4L310.1 23.3L228.4 12.2L136.5 64.5L85.7998 147.7L97.8998 227.9L171 254.3C171.4 254.4 171.7 254.8 171.7 255.2V262.4L206.9 291.7L205.7 293.4Z" fill="#42E8E0" fill-opacity="0.1"/>
<path d="M279.578 202.361L170.249 254.447L171.109 256.252L280.438 204.167L279.578 202.361Z" fill="#42E8E0" fill-opacity="0.1"/>
<path d="M319.026 49.5634L143.476 245.139L144.964 246.475L320.514 50.8994L319.026 49.5634Z" fill="#42E8E0" fill-opacity="0.1"/>
<path d="M270.253 104.674L269.679 106.59L324.95 123.161L325.524 121.245L270.253 104.674Z" fill="#42E8E0" fill-opacity="0.1"/>
<path d="M101.3 230.8L89.8999 148.1C89.8999 147.9 89.8999 147.6 89.9999 147.4L139.9 66.8001C140 66.7001 140.1 66.5 140.3 66.4001L231.6 16.4C231.8 16.3 232 16.3 232.2 16.3L313.6 29.3L313.3 31.3L232.3 18.4L141.6 68.2L92.0999 148.3L103.4 230.6L101.3 230.8Z" fill="#42E8E0" fill-opacity="0.1"/>
<path d="M96.1678 184.485L96.1011 186.484L195.341 189.797L195.408 187.798L96.1678 184.485Z" fill="#42E8E0" fill-opacity="0.1"/>
<path d="M199.856 35.1072L198.076 36.0186L246.744 131.081L248.525 130.17L199.856 35.1072Z" fill="#42E8E0" fill-opacity="0.1"/>
<path d="M221.949 79.8915L122.744 95.333L123.051 97.3092L222.256 81.8677L221.949 79.8915Z" fill="#42E8E0" fill-opacity="0.1"/>
<path d="M21.2139 315.836L21.0986 316.829L45.3351 319.643L45.4504 318.649L21.2139 315.836Z" fill="#42E8E0" fill-opacity="0.1"/>
<path d="M93.2 326.3L92.6 325.5L120.5 305.3H86.5V304.3H122C122.2 304.3 122.4 304.4 122.5 304.6C122.6 304.8 122.5 305 122.3 305.2L93.2 326.3Z" fill="#42E8E0" fill-opacity="0.1"/>
<path d="M69.4741 335.994L54.4419 338.848L54.6284 339.83L69.6606 336.977L69.4741 335.994Z" fill="#42E8E0" fill-opacity="0.1"/>
<path d="M107.9 473.8L107 473.4L121.6 441.6L127.3 422.9L132.7 392.6L107.5 394.5C107.3 394.5 107.2 394.4 107.1 394.3C107 394.2 107 394 107 393.8L113.6 375.3L81.6001 374.1V373.1L114.3 374.3C114.5 374.3 114.6 374.4 114.7 374.5C114.8 374.6 114.8 374.8 114.8 374.9L108.2 393.3L133.3 391.4C133.5 391.4 133.6 391.4 133.7 391.6C133.8 391.7 133.8 391.9 133.8 392L128.3 423L122.5 441.8L107.9 473.8Z" fill="#42E8E0" fill-opacity="0.1"/>
<path d="M122.445 304.71L121.468 304.923L132.756 356.504L133.733 356.29L122.445 304.71Z" fill="#42E8E0" fill-opacity="0.1"/>
<path d="M245.6 474C245.4 474 245.3 473.9 245.2 473.8L229.5 447.6L230.4 447.1L245.9 472.9L293.3 456.5L272.3 407.2L207.7 458.6C207.6 458.7 207.4 458.7 207.2 458.7C207 458.7 206.9 458.5 206.9 458.4L195.6 425.8C195.5 425.6 195.6 425.4 195.8 425.2L227.9 399.3L228.5 400.1L196.7 425.8L207.7 457.4L272.3 406C272.4 405.9 272.6 405.9 272.7 405.9C272.9 405.9 273 406 273 406.2L294.4 456.6C294.5 456.7 294.5 456.9 294.4 457C294.3 457.1 294.2 457.2 294.1 457.3L245.8 474C245.7 474 245.7 474 245.6 474Z" fill="#42E8E0" fill-opacity="0.1"/>
<path d="M320.9 323H282V322H318.5L280.2 305.3L280.6 304.4L321.1 322.1C321.3 322.2 321.4 322.4 321.4 322.7C321.3 322.8 321.1 323 320.9 323Z" fill="#42E8E0" fill-opacity="0.1"/>
<path d="M339.213 304.48L320.545 322.144L321.232 322.87L339.901 305.207L339.213 304.48Z" fill="#42E8E0" fill-opacity="0.1"/>
<path d="M228 545.4L198.3 544.3C198.2 544.3 198 544.2 197.9 544.1L160 501.7L160.7 501L198.5 543.2L228 544.3V545.4Z" fill="#42E8E0" fill-opacity="0.1"/>
<path d="M250.4 506.5C250.2 506.5 250.1 506.4 250 506.3L227.6 469.3L228.5 468.8L250.2 504.6L254.4 478.2L255.4 478.4L251 506.2C250.9 506.3 250.7 506.5 250.4 506.5C250.5 506.5 250.4 506.5 250.4 506.5Z" fill="#42E8E0" fill-opacity="0.1"/>
<path d="M371.7 373.2L371.1 372.4L391.1 358.2C389.1 356.4 380.8 349.1 372.8 341.6C353.9 324.1 354.4 322.9 354.6 322.3L355.5 322.7C355.5 322.6 355.5 322.6 355.5 322.6C355.7 324.9 378.1 345.4 392.2 357.9C392.3 358 392.4 358.1 392.4 358.3C392.4 358.5 392.3 358.6 392.2 358.7L371.7 373.2Z" fill="#42E8E0" fill-opacity="0.1"/>
<path d="M434.4 414.7C434.3 414.7 434.3 414.7 434.2 414.7L377.7 390C377.5 389.9 377.3 389.6 377.4 389.4C377.5 389.2 377.7 389 378 389.1L422 398.7L396.4 364.9L397.2 364.3L423.5 399L451.8 405.2L451.6 406.2L424.4 400.2L434.8 413.9C434.9 414.1 434.9 414.3 434.8 414.5C434.6 414.7 434.5 414.7 434.4 414.7ZM382.7 391.1L432.8 413L422.9 399.9L382.7 391.1Z" fill="#42E8E0" fill-opacity="0.1"/>
<path d="M438 664L376.1 648C375.9 648 375.8 647.8 375.7 647.7C375.6 647.5 375.7 647.4 375.8 647.2L384.8 636.9L395.6 589.4L302.2 600C302.1 600 302 600 301.9 599.9L241.2 562.7C241 562.6 240.9 562.4 241 562.1C241.1 561.9 241.2 561.7 241.5 561.7L311.7 559.2L365.3 535.2L341.4 472.5C341.3 472.3 341.4 472.1 341.6 471.9C341.8 471.8 342 471.8 342.2 471.9L378.2 501L378.3 501.1L415.8 553.4L385.3 395.7L376.7 453L375.7 452.9L384.8 392.8C384.8 392.6 385 392.4 385.3 392.4C385.5 392.4 385.8 392.6 385.8 392.8L417 554.5L442.9 519.6L405.7 455.6C405.6 455.4 405.6 455.2 405.7 455C405.8 454.8 406.1 454.8 406.2 454.8L450.2 470.1L472.1 480.8C472.2 480.9 472.3 481 472.4 481.1C472.4 481.2 472.4 481.4 472.3 481.5L444.1 519.6L458 543.6C458 543.7 458.1 543.7 458.1 543.8L466.1 614.7C466.1 614.8 466.1 614.9 466 615L438.4 663.8C438.3 663.9 438.1 664 438 664ZM377.1 647.2L437.7 662.9L465 614.6L457 543.9L443.3 520.4L417 555.9C416.9 556.1 416.7 556.1 416.5 556.1C416.4 556.1 416.3 556 416.2 555.9L377.4 501.8L342.8 473.9L366.2 535.3C366.3 535.5 366.2 535.8 365.9 535.9L311.8 560.1C311.7 560.1 311.7 560.1 311.6 560.1L243 562.6L302.2 598.9L396.2 588.3C396.4 588.3 396.5 588.3 396.6 588.5C396.7 588.6 396.8 588.8 396.7 588.9L385.7 637.2C385.7 637.3 385.6 637.4 385.6 637.4L377.1 647.2ZM407.2 456.1L443.5 518.6L471.1 481.3L449.8 470.9L407.2 456.1Z" fill="#42E8E0" fill-opacity="0.1"/>
<path d="M385.3 637.6C385.2 637.6 385.1 637.6 385 637.5L349.4 605.9L327.2 595.8C327.1 595.7 327 595.7 326.9 595.5L311.4 559.8C311.3 559.6 311.4 559.4 311.5 559.2C311.7 559.1 311.9 559 312.1 559.2L355.8 590.2L373.4 580.1L416.6 555.1C416.8 555 417 555 417.1 555.1C417.3 555.2 417.3 555.4 417.3 555.6L415.4 596.3C415.4 596.4 415.4 596.5 415.3 596.6L385.8 637.4C385.6 637.5 385.5 637.6 385.3 637.6ZM327.6 595L349.7 605C349.7 605 349.8 605 349.8 605.1L385.1 636.3L414.2 596.1L416.1 556.4L373.7 581L355.9 591.2C355.7 591.3 355.5 591.3 355.4 591.2L312.9 561.1L327.6 595Z" fill="#42E8E0" fill-opacity="0.1"/>
<path d="M365.5 535.9L314.8 496.8L295.4 508L294.9 507.1L314.6 495.7C314.8 495.6 315 495.6 315.2 495.7L366.2 535L365.5 535.9Z" fill="#42E8E0" fill-opacity="0.1"/>
<path d="M264.5 560.2C264.3 560.2 264.1 560 264 559.8L249.9 506.1C249.8 505.8 250 505.6 250.2 505.5L297.4 489.4L319.3 464.9L340.8 417.6L265 444.2L246 473.8L245.2 473.3L264.3 443.6C264.4 443.5 264.5 443.4 264.6 443.4L341.6 416.4C341.8 416.3 342 416.4 342.1 416.5C342.2 416.6 342.3 416.9 342.2 417L320.2 465.4C320.2 465.4 320.2 465.5 320.1 465.5L298.1 490.2C298 490.3 298 490.3 297.9 490.3L251 506.3L264.4 557.2L267.6 536.7C267.6 536.5 267.8 536.3 268 536.3L314.9 530.8L300.4 525.4L300.7 524.5L317.1 530.6L368.9 536.2C369.1 536.2 369.2 536.3 369.3 536.5C369.4 536.6 369.4 536.8 369.3 537L358.8 558.2C358.7 558.3 358.6 558.4 358.5 558.5C358.4 558.5 358.2 558.5 358.1 558.4L341.4 546.7L316.9 531.6L268.5 537.3L264.9 559.7C265 560 264.8 560.2 264.5 560.2ZM319.2 531.8L342 545.8L358.2 557.2L368.1 537.1L319.2 531.8Z" fill="#42E8E0" fill-opacity="0.1"/>
<path d="M531.1 664C531 664 531 664 530.9 664L455.6 632.5L456 631.6L500 650L473.9 604.7L462.6 590.4L430.7 602.5L430.3 601.6L462.5 589.4C462.7 589.3 462.9 589.4 463.1 589.6L474.7 604.3L501.3 650.5L531.3 663.3C531.6 663.4 531.7 663.7 531.6 664C531.5 663.8 531.3 664 531.1 664Z" fill="#42E8E0" fill-opacity="0.1"/>
<path d="M379.3 458.7L378.6 458L416.3 424.6C416.5 424.4 416.7 424.4 416.9 424.6L424.2 429.7L424.3 429.8L432.3 440.8L451.1 404L452 404.5L432.9 442C432.8 442.2 432.7 442.3 432.5 442.3C432.3 442.3 432.2 442.2 432.1 442.1L423.6 430.5L416.7 425.7L379.3 458.7Z" fill="#42E8E0" fill-opacity="0.1"/>
<path d="M450.156 641.505L450.003 642.493L497.441 649.823L497.594 648.834L450.156 641.505Z" fill="#42E8E0" fill-opacity="0.1"/>
<path d="M164.3 278.9L163.4 278.5L170 264.2L165.2 261.6L158.3 277C158.2 277.2 157.9 277.4 157.7 277.3L141.5 272C141.3 271.9 141.2 271.8 141.2 271.6C141.2 271.4 141.2 271.2 141.3 271.1L155.3 258L149.5 255.9L133.5 268C133.3 268.1 133.1 268.1 132.9 268C132.7 267.9 132.7 267.6 132.8 267.4L140 252.5L127.4 247.9L119.3 246.4V261.1C119.3 261.3 119.2 261.5 119 261.6C118.8 261.7 118.6 261.6 118.4 261.5L109.5 251.4C109.4 251.3 109.4 251.2 109.4 251.1V241.5L104.4 239.7L102.7 243.4L101.8 243L103.7 238.9C103.8 238.7 104.1 238.6 104.3 238.6L110 240.7C110.2 240.8 110.3 241 110.3 241.2V251L118.2 260V246C118.2 245.9 118.3 245.7 118.4 245.6C118.5 245.5 118.7 245.5 118.8 245.5L127.6 247.1L140.8 251.9C140.9 251.9 141 252.1 141.1 252.2C141.2 252.3 141.1 252.5 141.1 252.6L134.5 266.2L149.1 255.2C149.2 255.1 149.4 255.1 149.6 255.1L156.4 257.6C156.6 257.7 156.7 257.8 156.7 258C156.7 258.2 156.7 258.3 156.6 258.5L142.6 271.6L157.5 276.5L164.4 261.1C164.5 261 164.6 260.9 164.7 260.8C164.8 260.8 165 260.8 165.1 260.8L170.8 263.9C171 264 171.1 264.3 171 264.5L164.3 278.9Z" fill="#42E8E0" fill-opacity="0.1"/>
<path d="M129.11 247.568L118.818 259.557L119.577 260.208L129.869 248.219L129.11 247.568Z" fill="#42E8E0" fill-opacity="0.1"/>
<path d="M205.2 292.8C205.1 292.8 204.9 292.7 204.8 292.6L197.9 284.8C197.8 284.7 197.8 284.6 197.8 284.5V250.8L186.7 256.1L183.6 273.4L182.6 273.2L185.8 255.6C185.8 255.4 185.9 255.3 186.1 255.2L198.2 249.5C198.4 249.4 198.5 249.4 198.7 249.5C198.8 249.5 198.8 249.6 198.9 249.7L218.2 286.6C218.3 286.7 218.3 286.9 218.2 287C218.1 287.1 218.1 287.2 217.9 287.3L205.6 292.6C205.4 292.7 205.3 292.8 205.2 292.8ZM198.8 284.3L205.4 291.7L216.9 286.7L198.8 252V284.3Z" fill="#42E8E0" fill-opacity="0.1"/>
<path d="M231.1 280.4L230.1 280.1L236.1 258.7C236.1 258.7 236.1 258.6 236.2 258.6L262 219.4C262 219.3 262.1 219.3 262.2 219.2L273.2 214C273.4 213.9 273.6 213.9 273.7 214.1C273.8 214.2 273.9 214.4 273.9 214.6L261.8 263.8L299.8 244.5L284.2 211.1L285.1 210.7L301 244.6C301.1 244.8 301 245.1 300.8 245.3L261.4 265.3C261.2 265.4 261 265.4 260.9 265.2C260.7 265.1 260.7 264.9 260.7 264.7L272.8 215.4L262.9 220.1L237.2 259.1L231.1 280.4Z" fill="#42E8E0" fill-opacity="0.1"/>
<path d="M241.5 275.2C241.3 275.2 241.1 275.1 241.1 274.9L222.9 238.5L215.3 235.5L211.3 244.1C211.2 244.3 211.1 244.4 210.9 244.4L186.6 248.2L178 259.9L177.2 259.3L186 247.4C186.1 247.3 186.2 247.2 186.3 247.2L210.5 243.4L214.6 234.6C214.7 234.4 215 234.3 215.2 234.3L223.4 237.5C223.5 237.5 223.6 237.6 223.7 237.7L240.3 270.8L232.5 233.5C232.5 233.3 232.5 233.2 232.6 233C232.7 232.8 232.9 232.8 233.1 232.9L290.4 248.8L290.1 249.8L233.6 234.1L242 274.4C242.1 274.6 241.9 274.9 241.7 275C241.7 275.2 241.6 275.2 241.5 275.2Z" fill="#42E8E0" fill-opacity="0.1"/>
<path d="M217.5 287.4L198.2 284.9C198 284.9 197.8 284.7 197.8 284.5C197.8 284.3 197.8 284.1 198 284L236.4 258.4L303.4 227.9L302.7 177.3C302.7 177.2 302.7 177 302.8 176.9C302.9 176.8 303 176.8 303.2 176.8H346L326.2 135.7C326.1 135.5 326.1 135.4 326.2 135.2C326.3 135.1 326.5 135 326.6 135H368.9L368.7 134.7L330.6 128.7C330.4 128.7 330.3 128.6 330.2 128.4C330.1 128.2 330.1 128.1 330.2 127.9L333 122.9C333.1 122.8 333.2 122.7 333.4 122.7L359.6 118.6C359.8 118.6 360 118.7 360.1 118.8L370.2 135.2C370.3 135.4 370.3 135.5 370.2 135.7C370.1 135.9 369.9 136 369.8 136H327.4L347.2 177.1C347.3 177.3 347.3 177.4 347.2 177.6C347.1 177.7 346.9 177.8 346.8 177.8H303.7L304.4 228.2C304.4 228.4 304.3 228.6 304.1 228.7L236.9 259.3L199.7 284.1L217.6 286.4L217.5 287.4ZM331.5 127.9L368.1 133.7L359.5 119.8L333.9 123.8L331.5 127.9Z" fill="#42E8E0" fill-opacity="0.1"/>
<path d="M198.8 284.6L197.8 284.3L210.4 245.4C210.4 245.3 210.6 245.1 210.7 245.1C210.8 245 211 245.1 211.1 245.1L253.2 268.4L252.7 269.3L211.1 246.3L198.8 284.6Z" fill="#42E8E0" fill-opacity="0.1"/>
<path d="M363.7 134L337.2 118.1L328.5 116.8C328.3 116.8 328.2 116.6 328.1 116.5C328 116.3 328.1 116.1 328.2 116L345.8 99L346.5 99.7L329.7 116L337.5 117.1C337.6 117.1 337.6 117.1 337.7 117.2L364.2 133.2L363.7 134Z" fill="#42E8E0" fill-opacity="0.1"/>
<path d="M325.7 216.1H325.6L286.6 207.2C286.4 207.2 286.3 207.1 286.3 206.9C286.2 206.8 286.2 206.6 286.3 206.5L290.2 199.5C290.3 199.4 290.3 199.3 290.4 199.3L317.2 188.4L303.5 176.5C303.4 176.4 303.3 176.2 303.3 176.1C303.3 175.9 303.4 175.8 303.5 175.7L319.6 165.9L311.9 162.3L299 170.4L296 191C296 191.1 295.9 191.2 295.8 191.3L280.2 203.8L279.6 203L295 190.7L298 170.1C298 170 298.1 169.8 298.2 169.7L311.6 161.4C311.7 161.3 311.9 161.3 312.1 161.4L320.7 165.4L368 136.5L368.5 137.4L321.8 165.9L345.6 177.1C345.8 177.2 345.9 177.4 345.9 177.6C345.9 177.8 345.8 178 345.6 178L319.1 188.8L332.9 200.7C333.1 200.8 333.1 201.1 333 201.3L326.1 215.9C326 216 325.9 216.1 325.7 216.1ZM287.4 206.3L325.3 214.9L331.9 201L318 189L290.9 200L287.4 206.3ZM304.7 176.2L318.2 187.9L344.2 177.3L320.8 166.3L304.7 176.2Z" fill="#42E8E0" fill-opacity="0.1"/>
<path d="M331.722 125.403L307.212 153.52L307.966 154.177L332.476 126.06L331.722 125.403Z" fill="#42E8E0" fill-opacity="0.1"/>
<path d="M328.998 135.237L328.229 135.876L352.962 165.64L353.731 165.001L328.998 135.237Z" fill="#42E8E0" fill-opacity="0.1"/>
<path d="M355.1 113.2L350.9 73.1001L341.3 84.9001C341.2 85.1001 341 85.1001 340.8 85.1001C340.6 85.0001 340.5 84.9001 340.4 84.7001L335.9 43.2001L336.9 43.1001L341.2 83.4001L350.8 71.6001C350.9 71.4001 351.1 71.4001 351.3 71.4001C351.5 71.5001 351.6 71.6001 351.7 71.8001L356 113.1L355.1 113.2Z" fill="#42E8E0" fill-opacity="0.1"/>
<path d="M318.402 17.4767L310.66 22.064L311.169 22.9243L318.912 18.337L318.402 17.4767Z" fill="#42E8E0" fill-opacity="0.1"/>
<path d="M323.7 30.9001H313.8V31.9001H323.7V30.9001Z" fill="#42E8E0" fill-opacity="0.1"/>
<path d="M316.799 39.3405L316.018 39.9653L332.825 60.9688L333.606 60.344L316.799 39.3405Z" fill="#42E8E0" fill-opacity="0.1"/>
<path d="M344.5 96.9L328.2 75.9C328.1 75.8 328.1 75.6 328.1 75.4L333.2 62L334.1 62.4L329.1 75.5L345.2 96.3L344.5 96.9Z" fill="#42E8E0" fill-opacity="0.1"/>
<path d="M339.9 74.6001C339.8 74.6001 339.6 74.5001 339.5 74.4001C339.4 74.3001 339.3 74.1001 339.4 73.9001L345.8 56.6001L346.7 56.9001L340.7 73.3001L350.9 70.3001L351.2 71.3001L339.9 74.6001C340 74.6001 339.9 74.6001 339.9 74.6001Z" fill="#42E8E0" fill-opacity="0.1"/>
<path d="M135.8 64.3001C135.5 64.3001 135.4 64.1001 135.3 64.0001L131.6 54.3001L132.5 53.9001L135.9 62.8001L151.3 43.4001C151.4 43.3001 151.5 43.2001 151.6 43.2001L174.4 41.0001V31.4001C174.4 31.1001 174.6 30.9001 174.9 30.9001H190.8L198.3 19.9001L198.4 19.8001L205.5 14.6001C205.7 14.5001 205.9 14.5001 206.1 14.6001C206.3 14.7001 206.4 14.9001 206.3 15.1001L204.2 24.2001L227.7 11.0001L227 3.7001C227 3.6001 227 3.4001 227.1 3.3001C227.2 3.2001 227.3 3.1001 227.5 3.1001L236.2 3.2001C236.3 3.2001 236.4 3.2001 236.5 3.3001L247 12.7001V5.6001C247 5.4001 247.1 5.2001 247.4 5.1001C247.6 5.0001 247.8 5.1001 248 5.3001L253.2 13.9001L266.2 8.4001C266.3 8.3001 266.5 8.3001 266.6 8.4001L285.7 17.8001L288.1 12.5001C288.2 12.3001 288.4 12.2001 288.6 12.2001L300.7 14.3001C300.8 14.3001 300.9 14.4001 300.9 14.4001L309.6 21.9001L308.9 22.7001L300.3 15.3001L288.7 13.3001L286.2 18.8001C286.1 18.9001 286 19.0001 285.9 19.1001C285.8 19.1001 285.6 19.1001 285.5 19.1001L266.2 9.6001L253 15.2001C252.8 15.3001 252.5 15.2001 252.4 15.0001L247.9 7.6001V14.0001C247.9 14.2001 247.8 14.4001 247.6 14.5001C247.4 14.6001 247.2 14.5001 247.1 14.4001L235.9 4.4001L227.9 4.3001L228.6 11.3001C228.6 11.5001 228.5 11.7001 228.3 11.8001L203.7 25.8001C203.5 25.9001 203.3 25.9001 203.2 25.8001C203 25.7001 203 25.5001 203 25.3001L205.1 16.4001L199.2 20.7001L191.6 31.9001C191.5 32.0001 191.4 32.1001 191.2 32.1001H175.5V41.7001C175.5 42.0001 175.3 42.2001 175 42.2001L152 44.4001L136.2 64.2001C136.1 64.3001 136 64.3001 135.8 64.3001Z" fill="#42E8E0" fill-opacity="0.1"/>
<path d="M76.7 148.5L76.5 147.5L85.7 145.2L93.3 132.8C93.4 132.5 94 129.5 95.7 113.6L95.8 112.8C96 111.3 126.3 74.7 135.6 63.5L136.4 64.1C120.8 82.8 97.5 111.3 96.8 112.9L96.7 113.7C94.7 132.5 94.3 133 94.2 133.3L86.5 145.9C86.4 146 86.3 146.1 86.2 146.1L76.7 148.5Z" fill="#42E8E0" fill-opacity="0.1"/>
<path d="M170.7 255.8L146.3 254.6C146.2 254.6 146.1 254.6 146 254.5L126.4 240L119.4 244.8C119.2 245 118.9 244.9 118.7 244.7L111.5 234.6L102.1 231.2L88.8002 233.9C88.6002 233.9 88.4002 233.9 88.3002 233.7C88.2002 233.5 88.2002 233.3 88.3002 233.1L95.3002 223.1L88.4002 217.2C88.3002 217.1 88.2002 217 88.2002 216.8V179.1H79.2002C79.1002 179.1 78.9002 179 78.8002 178.9C78.7002 178.8 78.7002 178.6 78.7002 178.5L84.1002 147.9L85.1002 148.1L79.8002 178.1H88.7002C89.0002 178.1 89.2002 178.3 89.2002 178.6V216.6L96.3002 222.7C96.5002 222.9 96.5002 223.2 96.4002 223.4L89.8002 232.8L102 230.3C102.1 230.3 102.2 230.3 102.3 230.3L112 233.8C112.1 233.8 112.2 233.9 112.2 234L119.2 243.8L126 239.1C126.2 239 126.4 239 126.6 239.1L146.4 253.8L170.6 254.9L170.7 255.8Z" fill="#42E8E0" fill-opacity="0.1"/>
<path d="M220.8 83.1C223.175 83.1 225.1 81.1748 225.1 78.8C225.1 76.4252 223.175 74.5 220.8 74.5C218.425 74.5 216.5 76.4252 216.5 78.8C216.5 81.1748 218.425 83.1 220.8 83.1Z" fill="#42E8E0" fill-opacity="0.1"/>
<path d="M247.6 134.9C249.975 134.9 251.9 132.975 251.9 130.6C251.9 128.225 249.975 126.3 247.6 126.3C245.225 126.3 243.3 128.225 243.3 130.6C243.3 132.975 245.225 134.9 247.6 134.9Z" fill="#42E8E0" fill-opacity="0.1"/>
<path d="M270 110C272.375 110 274.3 108.075 274.3 105.7C274.3 103.325 272.375 101.4 270 101.4C267.625 101.4 265.7 103.325 265.7 105.7C265.7 108.075 267.625 110 270 110Z" fill="#42E8E0" fill-opacity="0.1"/>
<path d="M195.4 193.1C197.775 193.1 199.7 191.175 199.7 188.8C199.7 186.425 197.775 184.5 195.4 184.5C193.025 184.5 191.1 186.425 191.1 188.8C191.1 191.175 193.025 193.1 195.4 193.1Z" fill="#42E8E0" fill-opacity="0.1"/>
</g>
<defs>
<clipPath id="clip0_55_448">
<rect width="535.7" height="670.4" fill="white"/>
</clipPath>
</defs>
</svg>
