<svg width="36" height="36" viewBox="0 0 36 36" fill="none" xmlns="http://www.w3.org/2000/svg">
<g clip-path="url(#clip0_1301_3642)">
<path d="M1.40625 0H12.6562C14.8288 0 16.7646 1.03189 18 2.63123C19.2354 1.03189 21.1712 0 23.3438 0C24.444 0 33.4957 0 34.5938 0C35.3705 0 36 0.629517 36 1.40625V34.5938C36 35.3705 35.3705 36 34.5938 36H1.40625C0.629517 36 0 35.3705 0 34.5938C0 32.9609 0 2.86386 0 1.40625C0 0.629517 0.629517 0 1.40625 0ZM27.8438 2.8125H24.75V6.87689L25.4795 6.35587C25.7239 6.18118 26.0104 6.09384 26.2969 6.09384C26.5833 6.09384 26.8698 6.18118 27.1143 6.35587L27.8438 6.87689V2.8125ZM33.1875 33.1875V30.6562H23.3438C21.6681 30.6562 20.2343 31.709 19.6669 33.1875H33.1875ZM19.4062 29.114C20.5153 28.3151 21.8754 27.8438 23.3438 27.8438H33.1875V2.8125H30.6562V9.60947C30.6562 10.7507 29.3623 11.4181 28.4326 10.7537L26.2969 9.22824L24.1611 10.7537C23.238 11.4131 21.9375 10.7589 21.9375 9.60947V3.07315C20.459 3.64059 19.4062 5.07404 19.4062 6.75V29.114ZM2.8125 33.1875H16.3331C15.7657 31.709 14.3319 30.6562 12.6562 30.6562H2.8125V33.1875ZM2.8125 27.8438H12.6562C14.1246 27.8438 15.4847 28.3151 16.5938 29.114V6.75C16.5938 4.57883 14.8274 2.8125 12.6562 2.8125H2.8125V27.8438ZM21.9375 15.3281C21.9375 16.1049 22.567 16.7344 23.3438 16.7344H29.25C30.0267 16.7344 30.6562 16.1049 30.6562 15.3281C30.6562 14.5514 30.0267 13.9219 29.25 13.9219H23.3438C22.567 13.9219 21.9375 14.5514 21.9375 15.3281ZM21.9375 21.0468C21.9375 21.8235 22.567 22.453 23.3438 22.453H29.25C30.0267 22.453 30.6562 21.8235 30.6562 21.0468C30.6562 20.2701 30.0267 19.6405 29.25 19.6405H23.3438C22.567 19.6405 21.9375 20.2701 21.9375 21.0468ZM5.34375 15.3281C5.34375 16.1049 5.97327 16.7344 6.75 16.7344H12.6562C13.433 16.7344 14.0625 16.1049 14.0625 15.3281C14.0625 14.5514 13.433 13.9219 12.6562 13.9219H6.75C5.97327 13.9219 5.34375 14.5514 5.34375 15.3281ZM12.6562 8.20322H6.75C5.97327 8.20322 5.34375 8.83273 5.34375 9.60947C5.34375 10.3862 5.97327 11.0157 6.75 11.0157H12.6562C13.433 11.0157 14.0625 10.3862 14.0625 9.60947C14.0625 8.83273 13.433 8.20322 12.6562 8.20322ZM5.34375 21.0468C5.34375 21.8235 5.97327 22.453 6.75 22.453H12.6562C13.433 22.453 14.0625 21.8235 14.0625 21.0468C14.0625 20.2701 13.433 19.6405 12.6562 19.6405H6.75C5.97327 19.6405 5.34375 20.2701 5.34375 21.0468Z" fill="white"/>
</g>
<defs>
<clipPath id="clip0_1301_3642">
<rect width="36" height="36" fill="white" transform="matrix(-1 0 0 1 36 0)"/>
</clipPath>
</defs>
</svg>
