<svg width="36" height="36" viewBox="0 0 36 36" fill="none" xmlns="http://www.w3.org/2000/svg">
<path d="M24.3281 14.5898C24.2944 14.5898 24.3619 14.5923 24.3281 14.5898V14.5898ZM20.6082 8.73429C21.2014 8.23317 22.0887 8.30784 22.5899 8.90114L24.5152 11.1802L25.5047 10.3031C26.086 9.78792 26.9748 9.8415 27.4899 10.4227C28.005 11.0039 27.9515 11.8927 27.3703 12.4078L25.3029 14.2402C25.0449 14.469 24.6707 14.5898 24.3282 14.5898C23.9063 14.5898 23.5403 14.3847 23.2959 14.0953L20.4414 10.716C19.9402 10.1228 20.0149 9.23548 20.6082 8.73429V8.73429ZM20.6082 16.6093C21.2014 16.1082 22.0887 16.1828 22.5899 16.7761L24.5152 19.0552L25.5047 18.1781C26.086 17.6629 26.9748 17.7165 27.4899 18.2977C28.005 18.8789 27.9515 19.7677 27.3703 20.2828L25.3029 22.1153C25.0449 22.344 24.6707 22.4648 24.3282 22.4648C23.9063 22.4648 23.5403 22.2597 23.2959 21.9703L20.4414 18.591C19.9402 17.9978 20.0149 17.1105 20.6082 16.6093V16.6093ZM9.84375 10.2348H17.1562C17.9329 10.2348 18.5625 10.8643 18.5625 11.641C18.5625 12.4177 17.9329 13.0473 17.1562 13.0473H9.84375C9.06708 13.0473 8.4375 12.4177 8.4375 11.641C8.4375 10.8643 9.06708 10.2348 9.84375 10.2348ZM0 25.9805C0 29.8575 3.15415 33.0117 7.03125 33.0117H28.9688C32.8459 33.0117 36 29.8575 36 25.9805C36 25.2038 35.3704 24.5742 34.5938 24.5742H33.1875V4.39453C33.1875 3.61786 32.5579 2.98828 31.7812 2.98828H4.21875C3.44208 2.98828 2.8125 3.61786 2.8125 4.39453V24.5742H1.40625C0.629578 24.5742 0 25.2038 0 25.9805ZM30.375 24.5742H5.625V5.80078H30.375V24.5742ZM3.05346 27.3867H32.9465C32.3661 29.0237 30.8021 30.1992 28.9688 30.1992H7.03125C5.19785 30.1992 3.63389 29.0237 3.05346 27.3867ZM9.84375 18.0394H17.1562C17.9329 18.0394 18.5625 18.669 18.5625 19.4457C18.5625 20.2224 17.9329 20.8519 17.1562 20.8519H9.84375C9.06708 20.8519 8.4375 20.2224 8.4375 19.4457C8.4375 18.669 9.06708 18.0394 9.84375 18.0394Z" fill="white"/>
</svg>
