<svg width="36" height="36" viewBox="0 0 36 36" fill="none" xmlns="http://www.w3.org/2000/svg">
<path d="M17.7188 26.4375H12.6562C11.8796 26.4375 11.25 25.8079 11.25 25.0312C11.25 24.2546 11.8796 23.625 12.6562 23.625H17.7188C18.4954 23.625 19.125 24.2546 19.125 25.0312C19.125 25.8079 18.4954 26.4375 17.7188 26.4375ZM1.40625 3.9375H28.9688C29.7454 3.9375 30.375 4.56708 30.375 5.34375C30.375 6.12042 29.7454 6.75 28.9688 6.75H2.8125V25.0312C2.8125 25.8079 2.18292 26.4375 1.40625 26.4375C0.629578 26.4375 0 25.8079 0 25.0312V5.34375C0 4.56708 0.629578 3.9375 1.40625 3.9375ZM28.9688 26.4375H23.3438C22.5671 26.4375 21.9375 25.8079 21.9375 25.0312V19.4062C21.9375 18.6296 22.5671 18 23.3438 18H28.9688C29.7454 18 30.375 18.6296 30.375 19.4062V25.0312C30.375 25.8079 29.7454 26.4375 28.9688 26.4375ZM27.5625 20.8125H24.75V23.625H27.5625V20.8125ZM7.03125 9.5625H34.5938C35.3704 9.5625 36 10.1921 36 10.9688V30.6562C36 31.4329 35.3704 32.0625 34.5938 32.0625H7.03125C6.25458 32.0625 5.625 31.4329 5.625 30.6562V10.9688C5.625 10.1921 6.25458 9.5625 7.03125 9.5625ZM8.4375 29.25H33.1875V12.375H8.4375V29.25Z" fill="white"/>
</svg>
